<svg width="320" height="180" viewBox="0 0 320 180" fill="none" xmlns="http://www.w3.org/2000/svg">
  <defs>
    <linearGradient id="carBody" x1="36" y1="36" x2="244" y2="136" gradientUnits="userSpaceOnUse">
      <stop stop-color="#66E0FF"/>
      <stop offset="1" stop-color="#2B79FF"/>
    </linearGradient>
    <linearGradient id="carCabin" x1="110" y1="40" x2="194" y2="94" gradientUnits="userSpaceOnUse">
      <stop stop-color="#F5FBFF"/>
      <stop offset="1" stop-color="#92C8FF"/>
    </linearGradient>
  </defs>
  <rect x="34" y="92" width="222" height="38" rx="18" fill="url(#carBody)"/>
  <path d="M78 90L118 48C122 44 127 42 132 42H190C198 42 205 46 210 53L238 90H78Z" fill="url(#carBody)"/>
  <path d="M122 52H187C192 52 196 54 199 58L220 84H101L116 60C117 55 120 52 122 52Z" fill="url(#carCabin)" opacity="0.88"/>
  <circle cx="96" cy="132" r="24" fill="#101A30"/>
  <circle cx="96" cy="132" r="11" fill="#C6E7FF"/>
  <circle cx="222" cy="132" r="24" fill="#101A30"/>
  <circle cx="222" cy="132" r="11" fill="#C6E7FF"/>
  <rect x="248" y="100" width="24" height="12" rx="6" fill="#FFCC73"/>
  <rect x="48" y="98" width="18" height="10" rx="5" fill="#9DEAFF" opacity="0.9"/>
</svg>
